<?xml version="1.0" encoding="UTF-8" standalone="no"?>
<!DOCTYPE svg PUBLIC "-//W3C//DTD SVG 1.1//EN" "http://www.w3.org/Graphics/SVG/1.1/DTD/svg11.dtd">
<svg width="100%" height="100%" viewBox="0 0 4000 1309" version="1.1" xmlns="http://www.w3.org/2000/svg" xmlns:xlink="http://www.w3.org/1999/xlink" xml:space="preserve" xmlns:serif="http://www.serif.com/" style="fill-rule:evenodd;clip-rule:evenodd;stroke-linejoin:round;stroke-miterlimit:2;">
    <g transform="matrix(4.166667,0,0,4.166667,0,0)">
        <g transform="matrix(1,0,0,1,-55,-59)">
            <path d="M197.433,229.482C197.433,222.397 201.121,213.21 214.952,213.21C227.252,213.21 231.032,223.639 231.032,229.383L197.433,229.482ZM171.017,234.65L258.264,234.65L256.969,242.116L172.311,242.116L171.017,234.65ZM161.684,188.171C166.835,188.171 171.017,192.352 171.017,197.503C171.017,202.654 166.835,206.835 161.684,206.835C156.534,206.835 152.352,202.654 152.352,197.503C152.352,192.352 156.534,188.171 161.684,188.171ZM214.952,190.47C220.103,190.47 224.284,194.651 224.284,199.802C224.284,204.953 220.103,209.134 214.952,209.134C209.801,209.134 205.62,204.953 205.62,199.802C205.62,194.651 209.801,190.47 214.952,190.47ZM267.596,187.598C272.747,187.598 276.929,191.78 276.929,196.93C276.929,202.081 272.747,206.263 267.596,206.263C262.446,206.263 258.264,202.081 258.264,196.93C258.264,191.78 262.446,187.598 267.596,187.598ZM350.526,153.928L300.868,175.105C254.489,61.893 60.217,131.761 139.55,271.05L131.874,302.718L166.646,292.249C179.95,305.086 263.121,330.585 304.239,245.139L351.35,265.329C334.616,305.918 258.048,399.408 139.804,335.378L68.764,355.942L94.002,294.25C-17.68,123.583 238.992,-43.717 350.526,153.928ZM189.793,180.756L187.502,180.756C183.948,180.756 181.062,177.871 181.062,174.317L181.062,144.571C181.062,141.017 183.948,138.132 187.502,138.132L241.924,138.132C245.478,138.132 248.363,141.017 248.363,144.571L248.363,174.317C248.363,177.871 245.478,180.756 241.924,180.756L206.065,180.756L189.793,194.102L189.793,180.756ZM238.448,150.458C238.448,149.533 237.697,148.782 236.772,148.782L193.445,148.782C192.52,148.782 191.769,149.533 191.769,150.458L191.769,155.069C191.769,155.995 192.52,156.746 193.445,156.746L236.772,156.746C237.697,156.746 238.448,155.995 238.448,155.069L238.448,150.458ZM221.173,162.71C221.173,161.785 220.422,161.034 219.497,161.034L193.445,161.034C192.52,161.034 191.769,161.785 191.769,162.71L191.769,167.321C191.769,168.246 192.52,168.997 193.445,168.997L219.497,168.997C220.422,168.997 221.173,168.246 221.173,167.321L221.173,162.71ZM166.849,247.402C166.849,247.402 178.836,247.337 179.51,247.525C181.369,248.045 183.278,250.992 183.775,252.857L187.79,279.517C187.217,282.711 181.666,282.709 180.325,280.583L177.195,265.544C176.339,262.894 175.855,259.63 173.927,258.628L153.603,258.628C150.375,258.056 146.424,256.33 145.26,253.422L138.36,220.551C137.954,217.976 142.15,215.761 144.507,217.666L149.463,244.702C149.933,246.105 150.778,247.006 152.662,247.52L152.662,214.467C154.08,210.497 160.973,209.576 164.768,210.809C168.564,212.043 171.638,219.804 175.432,221.869C179.912,224.307 188.104,223.437 188.104,223.437C189.868,223.917 189.65,229.43 188.146,229.482C188.146,229.482 169.897,230.2 166.849,227.541L166.849,247.402ZM261.947,247.402L261.947,227.541C258.899,230.2 240.65,229.482 240.65,229.482C239.146,229.43 238.928,223.917 240.692,223.437C240.692,223.437 248.884,224.307 253.364,221.869C257.158,219.804 260.232,212.043 264.028,210.809C267.823,209.576 274.716,210.497 276.134,214.467L276.134,247.52C278.018,247.006 278.863,246.105 279.333,244.702L284.289,217.666C286.646,215.761 290.842,217.976 290.436,220.551L283.536,253.422C282.372,256.33 278.421,258.056 275.193,258.628L254.869,258.628C252.941,259.63 252.457,262.894 251.601,265.544L248.471,280.583C247.13,282.709 241.579,282.711 241.006,279.517L245.021,252.857C245.518,250.992 247.427,248.045 249.286,247.525C249.96,247.337 261.947,247.402 261.947,247.402Z" style="fill:url(#_Linear1);"/>
        </g>
        <g transform="matrix(1,0,0,1,-70.535394,-15.669545)">
            <g transform="matrix(156,0,0,156,1022.196961,218.023001)">
            </g>
            <text x="378.229px" y="218.023px" style="font-family:'Dubai-Bold', 'Dubai', sans-serif;font-weight:700;font-size:156px;fill:rgb(61,36,87);" textLength="628" lengthAdjust="spacingAndGlyphs">CENARIO</text>
        </g>
    </g>
    <defs>
        <linearGradient id="_Linear1" x1="0" y1="0" x2="1" y2="0" gradientUnits="userSpaceOnUse" gradientTransform="matrix(284.897006,-204.198188,204.198188,284.897006,66.453046,357.170895)"><stop offset="0" style="stop-color:rgb(56,31,79);stop-opacity:1"/><stop offset="0.25" style="stop-color:rgb(74,53,107);stop-opacity:1"/><stop offset="0.53" style="stop-color:rgb(90,91,134);stop-opacity:1"/><stop offset="0.81" style="stop-color:rgb(103,139,159);stop-opacity:1"/><stop offset="1" style="stop-color:rgb(110,171,172);stop-opacity:1"/></linearGradient>
    </defs>
</svg>
