<?xml version="1.0" encoding="UTF-8" standalone="no"?>
<!DOCTYPE svg PUBLIC "-//W3C//DTD SVG 1.1//EN" "http://www.w3.org/Graphics/SVG/1.1/DTD/svg11.dtd">
<svg width="100%" height="100%" viewBox="0 0 285 293" version="1.1" xmlns="http://www.w3.org/2000/svg" xmlns:xlink="http://www.w3.org/1999/xlink" xml:space="preserve" xmlns:serif="http://www.serif.com/" style="fill-rule:evenodd;clip-rule:evenodd;stroke-linejoin:round;stroke-miterlimit:2;">
    <path d="M130.98,165.034C130.98,157.949 134.668,148.762 148.499,148.762C160.799,148.762 164.579,159.191 164.579,164.935L130.98,165.034ZM104.564,170.202L191.811,170.202L190.516,177.668L105.858,177.668L104.564,170.202ZM95.231,123.723C100.382,123.723 104.564,127.904 104.564,133.055C104.564,138.206 100.382,142.387 95.231,142.387C90.081,142.387 85.899,138.206 85.899,133.055C85.899,127.904 90.081,123.723 95.231,123.723ZM148.499,126.022C153.65,126.022 157.831,130.203 157.831,135.354C157.831,140.505 153.65,144.686 148.499,144.686C143.348,144.686 139.167,140.505 139.167,135.354C139.167,130.203 143.348,126.022 148.499,126.022ZM201.143,123.15C206.294,123.15 210.476,127.332 210.476,132.482C210.476,137.633 206.294,141.815 201.143,141.815C195.993,141.815 191.811,137.633 191.811,132.482C191.811,127.332 195.993,123.15 201.143,123.15ZM284.073,89.48L234.415,110.657C188.036,-2.555 -6.237,67.313 73.097,206.602L65.421,238.27L100.193,227.801C113.497,240.638 196.668,266.137 237.786,180.691L284.897,200.881C268.163,241.47 191.595,334.959 73.351,270.93L2.311,291.494L27.549,229.802C-84.133,59.135 172.539,-108.165 284.073,89.48ZM123.34,116.308L121.048,116.308C117.495,116.308 114.609,113.423 114.609,109.869L114.609,80.123C114.609,76.569 117.495,73.684 121.048,73.684L175.471,73.684C179.025,73.684 181.91,76.569 181.91,80.123L181.91,109.869C181.91,113.423 179.025,116.308 175.471,116.308L139.612,116.308L123.34,129.654L123.34,116.308ZM171.995,86.01C171.995,85.085 171.244,84.334 170.319,84.334L126.992,84.334C126.067,84.334 125.316,85.085 125.316,86.01L125.316,90.621C125.316,91.546 126.067,92.298 126.992,92.298L170.319,92.298C171.244,92.298 171.995,91.546 171.995,90.621L171.995,86.01ZM154.72,98.262C154.72,97.337 153.969,96.586 153.044,96.586L126.992,96.586C126.067,96.586 125.316,97.337 125.316,98.262L125.316,102.873C125.316,103.798 126.067,104.549 126.992,104.549L153.044,104.549C153.969,104.549 154.72,103.798 154.72,102.873L154.72,98.262ZM100.396,182.954C100.396,182.954 112.383,182.889 113.057,183.077C114.916,183.597 116.825,186.544 117.322,188.409L121.337,215.069C120.764,218.263 115.213,218.261 113.872,216.135L110.742,201.096C109.886,198.446 109.402,195.182 107.474,194.18L87.15,194.18C83.922,193.608 79.971,191.882 78.807,188.973L71.906,156.103C71.501,153.528 75.697,151.313 78.054,153.218L83.01,180.254C83.48,181.657 84.325,182.558 86.209,183.072L86.209,150.019C87.627,146.049 94.52,145.128 98.315,146.361C102.111,147.595 105.185,155.356 108.979,157.421C113.459,159.859 121.651,158.989 121.651,158.989C123.415,159.469 123.197,164.982 121.693,165.034C121.693,165.034 103.444,165.752 100.396,163.093L100.396,182.954ZM195.493,182.954L195.493,163.093C192.446,165.752 174.196,165.034 174.196,165.034C172.693,164.982 172.475,159.469 174.239,158.989C174.239,158.989 182.43,159.859 186.911,157.421C190.705,155.356 193.779,147.595 197.574,146.361C201.37,145.128 208.263,146.049 209.681,150.019L209.681,183.072C211.565,182.558 212.41,181.657 212.88,180.254L217.836,153.218C220.193,151.313 224.389,153.528 223.983,156.103L217.083,188.973C215.919,191.882 211.968,193.608 208.74,194.18L188.416,194.18C186.488,195.182 186.004,198.446 185.148,201.096L182.018,216.135C180.677,218.261 175.125,218.263 174.553,215.069L178.568,188.409C179.065,186.544 180.974,183.597 182.833,183.077C183.507,182.889 195.493,182.954 195.493,182.954Z" style="fill:url(#_Linear1);"/>
    <defs>
        <linearGradient id="_Linear1" x1="0" y1="0" x2="1" y2="0" gradientUnits="userSpaceOnUse" gradientTransform="matrix(284.897006,-204.198188,204.198188,284.897006,0,292.722879)"><stop offset="0" style="stop-color:rgb(56,31,79);stop-opacity:1"/><stop offset="0.25" style="stop-color:rgb(74,53,107);stop-opacity:1"/><stop offset="0.53" style="stop-color:rgb(90,91,134);stop-opacity:1"/><stop offset="0.81" style="stop-color:rgb(103,139,159);stop-opacity:1"/><stop offset="1" style="stop-color:rgb(110,171,172);stop-opacity:1"/></linearGradient>
    </defs>
</svg>
