<?xml version="1.0" encoding="UTF-8" standalone="no"?><!DOCTYPE svg PUBLIC "-//W3C//DTD SVG 1.1//EN" "http://www.w3.org/Graphics/SVG/1.1/DTD/svg11.dtd"><svg width="100%" height="100%" viewBox="0 0 960 314" version="1.1" xmlns="http://www.w3.org/2000/svg" xmlns:xlink="http://www.w3.org/1999/xlink" xml:space="preserve" xmlns:serif="http://www.serif.com/" style="fill-rule:evenodd;clip-rule:evenodd;stroke-linejoin:round;stroke-miterlimit:2;"><g transform="matrix(1,0,0,1,-55,-59)"><path d="M197.433,229.482C197.433,222.397 201.121,213.21 214.952,213.21C227.252,213.21 231.032,223.639 231.032,229.383L197.433,229.482ZM171.017,234.65L258.264,234.65L256.969,242.116L172.311,242.116L171.017,234.65ZM161.684,188.171C166.835,188.171 171.017,192.352 171.017,197.503C171.017,202.654 166.835,206.835 161.684,206.835C156.534,206.835 152.352,202.654 152.352,197.503C152.352,192.352 156.534,188.171 161.684,188.171ZM214.952,190.47C220.103,190.47 224.284,194.651 224.284,199.802C224.284,204.953 220.103,209.134 214.952,209.134C209.801,209.134 205.62,204.953 205.62,199.802C205.62,194.651 209.801,190.47 214.952,190.47ZM267.596,187.598C272.747,187.598 276.929,191.78 276.929,196.93C276.929,202.081 272.747,206.263 267.596,206.263C262.446,206.263 258.264,202.081 258.264,196.93C258.264,191.78 262.446,187.598 267.596,187.598ZM350.526,153.928L300.868,175.105C254.489,61.893 60.217,131.761 139.55,271.05L131.874,302.718L166.646,292.249C179.95,305.086 263.121,330.585 304.239,245.139L351.35,265.329C334.616,305.918 258.048,399.408 139.804,335.378L68.764,355.942L94.002,294.25C-17.68,123.583 238.992,-43.717 350.526,153.928ZM189.793,180.756L187.502,180.756C183.948,180.756 181.062,177.871 181.062,174.317L181.062,144.571C181.062,141.017 183.948,138.132 187.502,138.132L241.924,138.132C245.478,138.132 248.363,141.017 248.363,144.571L248.363,174.317C248.363,177.871 245.478,180.756 241.924,180.756L206.065,180.756L189.793,194.102L189.793,180.756ZM238.448,150.458C238.448,149.533 237.697,148.782 236.772,148.782L193.445,148.782C192.52,148.782 191.769,149.533 191.769,150.458L191.769,155.069C191.769,155.995 192.52,156.746 193.445,156.746L236.772,156.746C237.697,156.746 238.448,155.995 238.448,155.069L238.448,150.458ZM221.173,162.71C221.173,161.785 220.422,161.034 219.497,161.034L193.445,161.034C192.52,161.034 191.769,161.785 191.769,162.71L191.769,167.321C191.769,168.246 192.52,168.997 193.445,168.997L219.497,168.997C220.422,168.997 221.173,168.246 221.173,167.321L221.173,162.71ZM166.849,247.402C166.849,247.402 178.836,247.337 179.51,247.525C181.369,248.045 183.278,250.992 183.775,252.857L187.79,279.517C187.217,282.711 181.666,282.709 180.325,280.583L177.195,265.544C176.339,262.894 175.855,259.63 173.927,258.628L153.603,258.628C150.375,258.056 146.424,256.33 145.26,253.422L138.36,220.551C137.954,217.976 142.15,215.761 144.507,217.666L149.463,244.702C149.933,246.105 150.778,247.006 152.662,247.52L152.662,214.467C154.08,210.497 160.973,209.576 164.768,210.809C168.564,212.043 171.638,219.804 175.432,221.869C179.912,224.307 188.104,223.437 188.104,223.437C189.868,223.917 189.65,229.43 188.146,229.482C188.146,229.482 169.897,230.2 166.849,227.541L166.849,247.402ZM261.947,247.402L261.947,227.541C258.899,230.2 240.65,229.482 240.65,229.482C239.146,229.43 238.928,223.917 240.692,223.437C240.692,223.437 248.884,224.307 253.364,221.869C257.158,219.804 260.232,212.043 264.028,210.809C267.823,209.576 274.716,210.497 276.134,214.467L276.134,247.52C278.018,247.006 278.863,246.105 279.333,244.702L284.289,217.666C286.646,215.761 290.842,217.976 290.436,220.551L283.536,253.422C282.372,256.33 278.421,258.056 275.193,258.628L254.869,258.628C252.941,259.63 252.457,262.894 251.601,265.544L248.471,280.583C247.13,282.709 241.579,282.711 241.006,279.517L245.021,252.857C245.518,250.992 247.427,248.045 249.286,247.525C249.96,247.337 261.947,247.402 261.947,247.402Z" style="fill:url(#_Linear1);"/></g><g transform="matrix(1,0,0,1,-70.535394,-15.669545)"><g transform="matrix(156,0,0,156,378.228961,218.023001)"><path d="M0.351,0.014C0.242,0.014 0.163,-0.016 0.113,-0.076C0.062,-0.137 0.037,-0.218 0.037,-0.319C0.037,-0.401 0.051,-0.467 0.079,-0.518C0.107,-0.57 0.144,-0.606 0.191,-0.629C0.237,-0.651 0.289,-0.662 0.347,-0.662C0.388,-0.662 0.425,-0.657 0.459,-0.647C0.493,-0.638 0.527,-0.623 0.561,-0.603L0.508,-0.498C0.461,-0.529 0.409,-0.544 0.354,-0.544C0.241,-0.544 0.185,-0.472 0.185,-0.327C0.185,-0.255 0.201,-0.2 0.232,-0.163C0.263,-0.126 0.308,-0.107 0.365,-0.107C0.394,-0.107 0.42,-0.111 0.442,-0.119C0.464,-0.126 0.487,-0.137 0.511,-0.151L0.566,-0.051C0.53,-0.03 0.495,-0.013 0.461,-0.003C0.426,0.009 0.39,0.014 0.351,0.014Z" style="fill:rgb(61,36,87);fill-rule:nonzero;"/></g><g transform="matrix(156,0,0,156,468.396961,218.023001)"><path d="M0.213,-0.116L0.509,-0.116L0.509,-0L0.071,-0L0.071,-0.648L0.504,-0.648L0.504,-0.533L0.213,-0.533L0.213,-0.387L0.464,-0.387L0.448,-0.273L0.213,-0.273L0.213,-0.116Z" style="fill:rgb(61,36,87);fill-rule:nonzero;"/></g><g transform="matrix(156,0,0,156,554.664961,218.023001)"><path d="M0.646,-0.648L0.646,-0L0.492,-0L0.289,-0.302C0.272,-0.329 0.257,-0.352 0.245,-0.371C0.233,-0.391 0.221,-0.413 0.21,-0.438L0.21,-0L0.071,-0L0.071,-0.648L0.224,-0.648L0.445,-0.316C0.448,-0.312 0.454,-0.303 0.463,-0.288C0.472,-0.274 0.481,-0.261 0.488,-0.248C0.496,-0.235 0.503,-0.223 0.508,-0.211L0.508,-0.648L0.646,-0.648Z" style="fill:rgb(61,36,87);fill-rule:nonzero;"/></g><g transform="matrix(156,0,0,156,666.516961,218.023001)"><path d="M0.422,-0.648L0.655,-0.008L0.655,-0L0.504,-0L0.452,-0.155L0.212,-0.155L0.161,-0L0.012,-0L0.012,-0.008L0.245,-0.648L0.422,-0.648ZM0.25,-0.269L0.414,-0.269L0.331,-0.516L0.25,-0.269Z" style="fill:rgb(61,36,87);fill-rule:nonzero;"/></g><g transform="matrix(156,0,0,156,770.724961,218.023001)"><path d="M0.585,-0.008L0.585,-0L0.428,-0L0.267,-0.236L0.213,-0.236L0.213,-0L0.071,-0L0.071,-0.648L0.288,-0.648C0.345,-0.648 0.393,-0.639 0.431,-0.622C0.47,-0.604 0.498,-0.58 0.517,-0.549C0.536,-0.519 0.545,-0.485 0.545,-0.446C0.545,-0.401 0.534,-0.361 0.511,-0.329C0.488,-0.296 0.455,-0.271 0.411,-0.255L0.585,-0.008ZM0.213,-0.343L0.274,-0.343C0.314,-0.343 0.345,-0.351 0.366,-0.366C0.388,-0.381 0.399,-0.407 0.399,-0.442C0.399,-0.473 0.389,-0.496 0.37,-0.511C0.351,-0.526 0.324,-0.534 0.289,-0.534L0.213,-0.534L0.213,-0.343Z" style="fill:rgb(61,36,87);fill-rule:nonzero;"/></g><g transform="matrix(156,0,0,156,864.480961,218.023001)"><rect x="0.071" y="-0.648" width="0.142" height="0.648" style="fill:rgb(61,36,87);fill-rule:nonzero;"/></g><g transform="matrix(156,0,0,156,908.940961,218.023001)"><path d="M0.36,0.014C0.291,0.014 0.232,-0 0.183,-0.029C0.135,-0.058 0.099,-0.097 0.074,-0.148C0.049,-0.2 0.037,-0.259 0.037,-0.326C0.037,-0.401 0.052,-0.463 0.082,-0.513C0.112,-0.564 0.152,-0.601 0.202,-0.626C0.251,-0.65 0.306,-0.662 0.367,-0.662C0.436,-0.662 0.495,-0.648 0.543,-0.619C0.592,-0.59 0.628,-0.551 0.652,-0.499C0.677,-0.448 0.689,-0.389 0.689,-0.322C0.689,-0.247 0.674,-0.185 0.644,-0.135C0.615,-0.084 0.575,-0.047 0.525,-0.022C0.476,0.002 0.421,0.014 0.36,0.014ZM0.36,-0.102C0.399,-0.102 0.433,-0.111 0.461,-0.129C0.488,-0.146 0.509,-0.171 0.522,-0.205C0.536,-0.238 0.543,-0.276 0.543,-0.321C0.543,-0.392 0.528,-0.447 0.498,-0.486C0.468,-0.526 0.424,-0.546 0.367,-0.546C0.307,-0.546 0.261,-0.527 0.23,-0.487C0.199,-0.448 0.183,-0.395 0.183,-0.327C0.183,-0.256 0.198,-0.201 0.228,-0.162C0.258,-0.122 0.302,-0.102 0.36,-0.102Z" style="fill:rgb(61,36,87);fill-rule:nonzero;"/></g></g><defs><linearGradient id="_Linear1" x1="0" y1="0" x2="1" y2="0" gradientUnits="userSpaceOnUse" gradientTransform="matrix(284.897006,-204.198188,204.198188,284.897006,66.453046,357.170895)"><stop offset="0" style="stop-color:rgb(56,31,79);stop-opacity:1"/><stop offset="0.25" style="stop-color:rgb(74,53,107);stop-opacity:1"/><stop offset="0.53" style="stop-color:rgb(90,91,134);stop-opacity:1"/><stop offset="0.81" style="stop-color:rgb(103,139,159);stop-opacity:1"/><stop offset="1" style="stop-color:rgb(110,171,172);stop-opacity:1"/></linearGradient></defs></svg>